<svg width="42" height="38" viewBox="0 0 42 38" fill="none" xmlns="http://www.w3.org/2000/svg">
<path d="M41 17.75L24.8281 1.34375C24.125 0.640625 23.0312 0.640625 22.3281 1.34375C21.625 2.04688 21.625 3.14063 22.3281 3.84375L35.4531 17.2031H2.25C1.3125 17.2031 0.53125 17.9844 0.53125 18.9219C0.53125 19.8594 1.3125 20.7188 2.25 20.7188H35.6094L22.3281 34.2344C21.625 34.9375 21.625 36.0313 22.3281 36.7344C22.6406 37.0469 23.1094 37.2031 23.5781 37.2031C24.0469 37.2031 24.5156 37.0469 24.8281 36.6563L41 20.25C41.7031 19.5469 41.7031 18.4531 41 17.75Z" fill="white"/>
</svg>
