<svg width="42" height="38" viewBox="0 0 42 38" fill="none" xmlns="http://www.w3.org/2000/svg">
<path d="M1 17.75L17.1719 1.34375C17.875 0.640625 18.9688 0.640625 19.6719 1.34375C20.375 2.04688 20.375 3.14063 19.6719 3.84375L6.54688 17.2031H39.75C40.6875 17.2031 41.4688 17.9844 41.4688 18.9219C41.4688 19.8594 40.6875 20.7188 39.75 20.7188H6.39062L19.6719 34.2344C20.375 34.9375 20.375 36.0313 19.6719 36.7344C19.3594 37.0469 18.8906 37.2031 18.4219 37.2031C17.9531 37.2031 17.4844 37.0469 17.1719 36.6563L1 20.25C0.296879 19.5469 0.296879 18.4531 1 17.75Z" fill="white"/>
</svg>
