<svg width="185" height="186" viewBox="0 0 185 186" fill="none" xmlns="http://www.w3.org/2000/svg">
<path d="M175.616 78.9889L173.478 74.087C174.022 73.7477 174.42 73.2586 174.671 72.6197C174.921 71.9808 175.006 71.2412 174.925 70.401C174.836 69.5437 174.575 68.6189 174.142 67.6265C173.523 66.2064 172.841 65.1801 172.096 64.5476C171.345 63.898 170.609 63.73 169.891 64.0434C169.343 64.2823 169.029 64.7047 168.947 65.3106C168.84 65.9069 168.998 66.8765 169.421 68.2195L170.66 72.1087C171.53 74.8042 171.749 76.939 171.315 78.5129C170.874 80.0698 169.841 81.2027 168.215 81.9118C166.932 82.4715 165.673 82.5728 164.438 82.2156C163.195 81.8412 162.036 81.0741 160.96 79.9143C159.876 78.7374 158.931 77.2251 158.125 75.3772C157.326 73.5465 156.886 71.814 156.805 70.1796C156.723 68.5453 156.97 67.1036 157.545 65.8548C158.12 64.6059 159.026 63.6711 160.263 63.0503L162.401 67.9522C161.9 68.252 161.56 68.6856 161.38 69.253C161.175 69.8107 161.119 70.4766 161.213 71.2505C161.281 72.0148 161.521 72.8675 161.931 73.8085C162.498 75.1088 163.138 76.0619 163.851 76.6676C164.538 77.2637 165.224 77.4124 165.909 77.1139C166.422 76.89 166.727 76.4922 166.824 75.9204C166.913 75.3316 166.772 74.4256 166.402 73.2024L165.125 69.0855C164.53 67.2068 164.202 65.639 164.143 64.382C164.083 63.125 164.308 62.1002 164.818 61.3076C165.327 60.5151 166.13 59.88 167.225 59.4023C168.542 58.8276 169.872 58.7259 171.216 59.0971C172.534 59.4588 173.781 60.2387 174.955 61.4371C176.122 62.6184 177.12 64.1586 177.948 66.0577C178.807 68.0254 179.278 69.8766 179.363 71.6114C179.44 73.3291 179.169 74.8322 178.55 76.1206C177.906 77.3993 176.928 78.3554 175.616 78.9889Z" fill="#333333"/>
<path d="M167.734 50.9551L164.503 53.7681L154.979 42.829L158.21 40.016L167.734 50.9551ZM147.988 53.8166L157.465 32.7205L161.16 36.9652L152.451 55.574L151.384 54.3492L170.997 48.2633L174.71 52.5291L152.492 58.9905L147.988 53.8166Z" fill="#333333"/>
<path d="M141.265 44.7367L151.958 29.4585L152.575 32.7272L139.683 23.7046L142.364 19.8736L157.642 30.5659L145.601 47.771L141.265 44.7367Z" fill="#333333"/>
<path d="M118.575 21.6817L119.869 17.9814L134.22 23.0004L132.926 26.7007L118.575 21.6817ZM130.19 23.6674L134.377 15.9362L135.633 19.0451L120.409 13.7211L121.842 9.62436L139.973 15.9651L134.974 25.3404L133.041 35.7879L115.042 29.4934L116.475 25.3967L131.566 30.6745L128.646 32.323L130.19 23.6674Z" fill="#333333"/>
<path d="M104.03 9.94798L98.7157 10.5446C98.5521 9.92427 98.2021 9.40004 97.6657 8.97188C97.1293 8.54371 96.4476 8.24455 95.6208 8.07439C94.7755 7.90631 93.8148 7.88265 92.7389 8.00343C91.1993 8.17626 90.0174 8.52494 89.1935 9.04946C88.351 9.57607 87.9734 10.2289 88.0609 11.008C88.1275 11.6016 88.4382 12.027 88.9931 12.284C89.5314 12.5617 90.5045 12.6966 91.9124 12.6889L95.9939 12.6533C98.8263 12.6172 100.93 13.0384 102.306 13.9171C103.664 14.7978 104.441 16.1193 104.639 17.8816C104.795 19.2728 104.52 20.5059 103.815 21.5806C103.09 22.6575 102.015 23.5389 100.589 24.2249C99.1452 24.913 97.4214 25.3695 95.418 25.5944C93.4331 25.8172 91.6478 25.7264 90.0622 25.3221C88.4765 24.9178 87.1719 24.2566 86.1484 23.3383C85.125 22.4201 84.4991 21.2788 84.2708 19.9144L89.5854 19.3178C89.7241 19.8846 90.038 20.3377 90.5269 20.6773C90.9994 21.0375 91.6191 21.2873 92.3861 21.4266C93.1366 21.5865 94.022 21.6092 95.0423 21.4947C96.4521 21.3364 97.5515 21.0064 98.3404 20.5046C99.1129 20.0234 99.4575 19.4118 99.3742 18.6698C99.3117 18.1133 99.0216 17.7045 98.5039 17.4432C97.9677 17.1841 97.0605 17.0511 95.7825 17.0443L91.4721 17.0492C89.5014 17.0638 87.9068 16.9141 86.6881 16.6001C85.4695 16.2861 84.5567 15.7686 83.9499 15.0478C83.343 14.327 82.973 13.373 82.8397 12.1858C82.6794 10.7575 82.9747 9.45639 83.7258 8.28261C84.4604 7.12947 85.5735 6.16863 87.0651 5.40011C88.5381 4.63367 90.3042 4.13489 92.3632 3.90375C94.4965 3.66428 96.4044 3.76004 98.087 4.19104C99.751 4.62411 101.107 5.32655 102.155 6.29834C103.187 7.29077 103.812 8.50731 104.03 9.94798Z" fill="#333333"/>
<path d="M74.9035 9.22769L76.6457 13.1415L63.3951 19.0397L61.653 15.1259L74.9035 9.22769ZM71.8501 28.9454L54.4594 13.7L59.6011 11.4113L74.8387 25.1938L73.3551 25.8543L73.2865 5.31953L78.4537 3.01945L78.1172 26.1557L71.8501 28.9454Z" fill="#333333"/>
<path d="M61.2251 32.701L49.7126 18.0309L53.0197 18.3898L40.6404 28.1045L37.7537 24.426L52.4238 12.9135L65.3882 29.4339L61.2251 32.701Z" fill="#333333"/>
<path d="M32.6275 47.6073L29.4744 45.2783L38.5077 33.0488L41.6608 35.3778L32.6275 47.6073ZM37.9549 37.0961L31.8048 30.8129L35.146 30.5309L25.5637 43.5036L22.0728 40.925L33.485 25.4749L40.966 33.0196L50.3767 37.9518L39.0476 53.2894L35.5567 50.7108L45.0558 37.8507L45.7685 41.1271L37.9549 37.0961Z" fill="#333333"/>
<path d="M17.1283 57.8661L16.1464 63.1232C15.5053 63.0984 14.9017 63.28 14.3355 63.668C13.7694 64.056 13.2841 64.6205 12.8799 65.3615C12.4722 66.1209 12.1689 67.0327 11.9702 68.097C11.6857 69.62 11.6739 70.8521 11.9349 71.7934C12.1924 72.753 12.7065 73.3047 13.4772 73.4487C14.0644 73.5583 14.5619 73.3854 14.9698 72.9299C15.3926 72.4962 15.806 71.6049 16.2098 70.2561L17.3681 66.3422C18.1609 63.6229 19.1784 61.7336 20.4206 60.6743C21.6595 59.6334 23.1505 59.2758 24.8937 59.6014C26.2699 59.8584 27.3688 60.4814 28.1905 61.4705C29.0088 62.4778 29.5378 63.7635 29.7774 65.3274C30.0136 66.9096 29.9466 68.6916 29.5764 70.6734C29.2097 72.6367 28.6014 74.3176 27.7516 75.716C26.9017 77.1144 25.8882 78.1689 24.711 78.8796C23.5339 79.5902 22.2595 79.8554 20.888 79.6752L21.8699 74.4181C22.4524 74.4509 22.9775 74.2831 23.4451 73.9147C23.9276 73.5681 24.3475 73.0483 24.7048 72.3555C25.077 71.6844 25.3573 70.8443 25.5458 69.8351C25.8063 68.4405 25.8118 67.2927 25.5623 66.3916C25.3278 65.5122 24.8436 65.004 24.1096 64.8669C23.5591 64.7641 23.0833 64.9221 22.6823 65.3409C22.2778 65.7781 21.8856 66.6068 21.5058 67.8272L20.2513 71.951C19.6896 73.8399 19.0806 75.3213 18.4243 76.3951C17.768 77.4688 17.0066 78.1906 16.1399 78.5605C15.2733 78.9303 14.2528 79.0055 13.0784 78.7862C11.6655 78.5223 10.5075 77.8597 9.60432 76.7985C8.71606 75.7591 8.12228 74.4139 7.82299 72.7629C7.52028 71.1302 7.55913 69.2955 7.93955 67.2587C8.33369 65.1485 8.9826 63.3518 9.8863 61.8685C10.7866 60.4036 11.8545 59.3118 13.0901 58.5931C14.3407 57.8962 15.6867 57.6538 17.1283 57.8661Z" fill="#333333"/>
<path d="M7.87701 85.8415L12.1285 85.3146L13.9125 99.7084L9.66107 100.235L7.87701 85.8415ZM25.8511 94.5044L6.20222 106.702L5.50995 101.117L23.1324 90.5528L23.3321 92.1645L3.66734 86.2504L2.97163 80.6374L25.0073 87.6965L25.8511 94.5044Z" fill="#333333"/>
<path d="M26.2654 105.663L8.88079 112.41L10.1862 109.35L15.8798 124.02L11.5206 125.712L4.7734 108.327L24.3506 100.729L26.2654 105.663Z" fill="#333333"/>
<path d="M32.0899 137.263L28.9453 139.604L19.8674 127.407L23.012 125.067L32.0899 137.263ZM23.5796 129.112L15.7807 133.172L16.4815 129.893L26.1111 142.83L22.6296 145.422L11.161 130.013L20.5536 125.047L28.007 117.475L39.3919 132.771L35.9104 135.362L26.3644 122.537L29.7067 122.806L23.5796 129.112Z" fill="#333333"/>
<path d="M37.1775 154.997L41.9072 157.493C41.6935 158.098 41.688 158.728 41.8907 159.384C42.0934 160.039 42.4887 160.67 43.0766 161.276C43.6809 161.89 44.4619 162.45 45.4194 162.956C46.7896 163.679 47.9629 164.055 48.9391 164.085C49.932 164.124 50.6113 163.796 50.9773 163.103C51.2561 162.575 51.2384 162.048 50.9243 161.524C50.6354 160.991 49.9067 160.332 48.7383 159.547L45.3437 157.28C42.9816 155.717 41.4789 154.185 40.8355 152.685C40.2086 151.193 40.3091 149.663 41.1368 148.095C41.7902 146.857 42.711 145.992 43.8992 145.5C45.1038 145.017 46.4885 144.893 48.0531 145.128C49.6343 145.371 51.3163 145.964 53.0992 146.905C54.8657 147.837 56.2907 148.916 57.3743 150.142C58.4579 151.369 59.1645 152.649 59.4943 153.984C59.824 155.319 59.6995 156.615 59.1208 157.871L54.3911 155.375C54.5951 154.828 54.5905 154.277 54.3773 153.721C54.1893 153.158 53.8174 152.603 53.2616 152.056C52.731 151.502 52.0118 150.985 51.1038 150.506C49.8491 149.843 48.7545 149.498 47.82 149.469C46.9106 149.432 46.2817 149.744 45.9332 150.404C45.6718 150.9 45.6817 151.401 45.9628 151.908C46.2604 152.424 46.9356 153.044 47.9885 153.769L51.555 156.189C53.1926 157.286 54.4268 158.307 55.2578 159.252C56.0887 160.197 56.5523 161.138 56.6486 162.075C56.7449 163.013 56.5143 164.01 55.9566 165.066C55.2858 166.337 54.3097 167.247 53.0285 167.795C51.7724 168.335 50.3117 168.503 48.6461 168.3C46.9971 168.105 45.2564 167.524 43.4239 166.557C41.5255 165.555 40.0018 164.402 38.8531 163.1C37.7209 161.805 36.9948 160.462 36.6747 159.069C36.3798 157.668 36.5474 156.31 37.1775 154.997Z" fill="#333333"/>
<path d="M60.9409 172.123L61.6952 167.906L75.9726 170.46L75.2183 174.677L60.9409 172.123ZM74.5332 157.516L80.3722 179.894L74.8322 178.903L69.9542 158.944L71.5529 159.23L60.0862 176.265L54.5186 175.269L67.7804 156.308L74.5332 157.516Z" fill="#333333"/>
<path d="M85.9359 160.479L87.3014 179.077L84.7576 176.933L100.451 175.781L100.794 180.444L82.1959 181.81L80.6581 160.866L85.9359 160.479Z" fill="#333333"/>
<path d="M117.924 164.144L119.245 167.834L104.932 172.961L103.61 169.271L117.924 164.144ZM107.645 169.907L109.254 178.551L106.322 176.925L121.505 171.486L122.969 175.572L104.886 182.049L102.874 171.616L97.8045 162.279L115.756 155.849L117.219 159.935L102.168 165.326L103.4 162.208L107.645 169.907Z" fill="#333333"/>
<path d="M130.429 167.668L134.488 164.185C134.972 164.606 135.556 164.843 136.241 164.895C136.925 164.948 137.657 164.812 138.436 164.487C139.23 164.151 140.037 163.63 140.859 162.925C142.035 161.916 142.816 160.963 143.202 160.066C143.603 159.157 143.548 158.405 143.037 157.81C142.649 157.357 142.152 157.18 141.549 157.279C140.948 157.352 140.067 157.788 138.907 158.586L135.553 160.911C133.231 162.534 131.254 163.369 129.622 163.416C128.005 163.451 126.618 162.796 125.464 161.45C124.552 160.387 124.086 159.213 124.065 157.928C124.059 156.63 124.452 155.296 125.245 153.927C126.052 152.546 127.221 151.199 128.751 149.887C130.267 148.586 131.794 147.657 133.332 147.1C134.871 146.542 136.322 146.355 137.684 146.539C139.047 146.722 140.206 147.314 141.162 148.314L137.103 151.796C136.67 151.406 136.156 151.207 135.56 151.202C134.967 151.169 134.314 151.311 133.602 151.628C132.891 151.917 132.146 152.397 131.367 153.065C130.29 153.989 129.567 154.88 129.197 155.739C128.829 156.571 128.888 157.27 129.374 157.837C129.739 158.262 130.208 158.437 130.783 158.362C131.372 158.275 132.197 157.874 133.258 157.161L136.819 154.733C138.441 153.613 139.843 152.84 141.028 152.414C142.212 151.988 143.258 151.903 144.165 152.157C145.072 152.412 145.914 152.993 146.692 153.9C147.628 154.991 148.116 156.232 148.155 157.625C148.196 158.992 147.816 160.413 147.015 161.887C146.228 163.349 145.048 164.755 143.475 166.104C141.846 167.502 140.215 168.495 138.581 169.085C136.962 169.663 135.445 169.845 134.032 169.631C132.621 169.391 131.42 168.736 130.429 167.668Z" fill="#333333"/>
<path d="M155.094 151.772L151.454 149.512L159.105 137.19L162.745 139.45L155.094 151.772ZM146.546 133.743L169.497 136.589L166.529 141.371L146.18 138.525L147.037 137.146L158.627 154.097L155.643 158.902L142.928 139.571L146.546 133.743Z" fill="#333333"/>
<path d="M153.197 124.868L170.956 130.557L168.017 132.115L172.818 117.129L177.271 118.556L171.581 136.314L151.582 129.907L153.197 124.868Z" fill="#333333"/>
<path d="M168.559 96.3546L172.476 96.5059L171.889 111.699L167.972 111.547L168.559 96.3546ZM170.069 108.042L178.689 109.775L176.085 111.889L176.708 95.7726L181.044 95.94L180.303 115.134L169.874 113.106L159.319 114.323L160.055 95.2697L164.391 95.4371L163.774 111.413L161.342 109.106L170.069 108.042Z" fill="#333333"/>
</svg>
