<svg width="42" height="42" viewBox="0 0 42 42" fill="none" xmlns="http://www.w3.org/2000/svg">
<path d="M27.1688 0.65625H14.8313C3.34688 0.65625 0.65625 3.34688 0.65625 14.8313V27.3C0.65625 38.6531 3.34688 41.3438 14.8313 41.3438H27.3C38.6531 41.3438 41.3438 38.6531 41.3438 27.1688V14.8313C41.3438 3.34688 38.6531 0.65625 27.1688 0.65625ZM33.4688 29.6625H30.5156C29.4 29.6625 29.0062 28.7437 26.9719 26.7094C25.2 24.9375 24.4125 24.7406 24.0187 24.7406C23.4937 24.7406 23.2969 24.8062 23.2969 25.6594V28.35C23.2969 29.0719 23.1 29.4656 21.1969 29.4656C18.0469 29.4656 14.6344 27.4969 12.1406 24.0187C8.46563 18.8344 7.54688 14.9625 7.54688 14.1094C7.54688 13.65 7.6125 13.2563 8.46562 13.2563H11.4187C12.1406 13.2563 12.4688 13.5188 12.7312 14.3719C14.2406 18.6375 16.6031 22.3125 17.6531 22.3125C18.0469 22.3125 18.1781 22.1156 18.1781 21.1969V16.8656C18.1125 14.8313 17.0625 14.7656 17.0625 13.9125C17.0625 13.65 17.325 13.1906 17.7844 13.1906H22.3781C23.0344 13.1906 23.2313 13.4531 23.2313 14.3062V20.1469C23.2313 20.8031 23.4937 21 23.6906 21C24.0844 21 24.4125 20.8031 25.0688 20.0813C27.1688 17.6531 28.6781 14.0437 28.6781 14.0437C28.875 13.5844 29.2031 13.1906 29.9906 13.1906H32.9438C33.8625 13.1906 34.0594 13.65 33.8625 14.3062C33.4688 16.0781 29.8594 21.1313 29.8594 21.1313C29.5969 21.5906 29.4 21.8531 29.8594 22.4438C30.1219 22.9031 31.2375 23.7563 31.8937 24.5438C33.2062 26.0531 34.125 27.2344 34.3875 28.0875C34.7156 29.2031 34.3219 29.6625 33.4688 29.6625Z" fill="#333333"/>
</svg>
