<svg width="42" height="30" viewBox="0 0 42 30" fill="none" xmlns="http://www.w3.org/2000/svg">
<path d="M40.4906 5.22178C40.0312 3.4499 38.6531 2.07178 36.8813 1.6124C33.7313 0.759278 21 0.759277 21 0.759277C21 0.759277 8.26875 0.759278 5.11875 1.6124C3.34688 2.07178 1.96875 3.4499 1.50937 5.22178C0.65625 8.4374 0.65625 14.9999 0.65625 14.9999C0.65625 14.9999 0.65625 21.628 1.50937 24.778C1.96875 26.5499 3.34688 27.928 5.11875 28.3874C8.26875 29.2405 21 29.2405 21 29.2405C21 29.2405 33.7313 29.2405 36.8813 28.3874C38.6531 27.928 40.0312 26.5499 40.4906 24.778C41.3438 21.628 41.3438 14.9999 41.3438 14.9999C41.3438 14.9999 41.3438 8.4374 40.4906 5.22178ZM16.9312 21.103V8.89678L27.4969 14.9999L16.9312 21.103Z" fill="#333333"/>
</svg>
