<svg width="38" height="38" viewBox="0 0 38 38" fill="none" xmlns="http://www.w3.org/2000/svg">
<path d="M22.4836 28.9404C19.8084 28.9404 17.6682 30.9537 17.6682 33.4702C17.6682 35.9868 19.8084 38 22.4836 38C25.1588 38 27.299 35.9868 27.299 33.4702C27.299 31.0166 25.092 28.9404 22.4836 28.9404ZM22.4836 35.2318C21.4804 35.2318 20.6778 34.4769 20.6778 33.5331C20.6778 32.5894 21.4804 31.8345 22.4836 31.8345C23.4868 31.8345 24.2894 32.5894 24.2894 33.5331C24.2894 34.4139 23.4199 35.2318 22.4836 35.2318Z" fill="#FDF6F2"/>
<path d="M9.77658 28.9404C7.10136 28.9404 4.96118 30.9537 4.96118 33.4702C4.96118 35.9868 7.10136 38 9.77658 38C12.4518 38 14.592 35.9868 14.592 33.4702C14.592 31.0166 12.3849 28.9404 9.77658 28.9404ZM9.77658 35.2318C8.77338 35.2318 7.97081 34.4769 7.97081 33.5331C7.97081 32.5894 8.77338 31.8345 9.77658 31.8345C10.7798 31.8345 11.5824 32.5894 11.5824 33.5331C11.5824 34.4139 10.7798 35.2318 9.77658 35.2318Z" fill="#FDF6F2"/>
<path d="M36.5955 0H32.984C31.3788 0 29.9743 1.13245 29.7737 2.64238L28.7036 9.87749H25.8946V5.28477C25.8277 4.15232 24.8914 3.27152 23.7544 3.27152H18.8053C18.6046 2.32781 17.7352 1.63576 16.732 1.63576H10.9134C9.7764 1.63576 8.77319 2.57947 8.77319 3.77484V4.9702H3.89091C2.75394 4.9702 1.75073 5.85099 1.75073 6.85762V9.9404C1.21568 10.0662 0.814399 10.3179 0.479996 10.6954C0.0787126 11.1987 -0.121929 11.8907 0.0787127 12.5199C0.0787127 12.5828 0.0787127 12.5828 0.0787127 12.6457L4.22531 24.4106C4.49283 25.2914 5.36228 25.9205 6.36549 25.9205H24.8245C27.2991 25.9205 29.4393 24.1589 29.7737 21.8311L32.5827 3.01987C32.5827 2.89404 32.7164 2.83113 32.8502 2.83113H36.4617C37.2643 2.83113 38 2.20199 38 1.38411C38 0.566225 37.3981 0 36.5955 0ZM22.8181 9.87749H18.8053V6.10265H22.8181V9.87749ZM11.8497 4.46689H15.8625V5.28477V9.87749H11.8497V6.92053V4.46689ZM4.82723 7.73841H8.84007V9.87749H4.82723V7.73841ZM26.8978 21.3907C26.7641 22.3344 25.8946 23.0265 24.8914 23.0265H6.96741L3.35586 12.7086H28.2354L26.8978 21.3907Z" fill="#FDF6F2"/>
</svg>
