<svg width="28" height="28" viewBox="0 0 28 28" fill="none" xmlns="http://www.w3.org/2000/svg">
<path d="M27.5001 26.586L19.9481 19.034C21.7629 16.8553 22.6679 14.0608 22.4748 11.2319C22.2817 8.40297 21.0054 5.75738 18.9114 3.84551C16.8173 1.93363 14.0669 0.902668 11.2321 0.96708C8.39729 1.03149 5.69647 2.18632 3.69146 4.19133C1.68644 6.19635 0.531613 8.89717 0.467202 11.732C0.40279 14.5667 1.43376 17.3172 3.34563 19.4112C5.25751 21.5052 7.90309 22.7816 10.732 22.9747C13.561 23.1678 16.3554 22.2628 18.5341 20.448L26.0861 28L27.5001 26.586ZM2.50012 12C2.50012 10.22 3.02796 8.4799 4.01689 6.99986C5.00582 5.51982 6.41143 4.36627 8.05597 3.68508C9.7005 3.00389 11.5101 2.82566 13.2559 3.17293C15.0018 3.52019 16.6054 4.37736 17.8641 5.63603C19.1228 6.89471 19.9799 8.49835 20.3272 10.2442C20.6745 11.99 20.4962 13.7996 19.815 15.4441C19.1338 17.0887 17.9803 18.4943 16.5002 19.4832C15.0202 20.4722 13.2801 21 11.5001 21C9.11398 20.9973 6.82633 20.0483 5.13908 18.361C3.45182 16.6738 2.50276 14.3861 2.50012 12Z" fill="#333333"/>
</svg>
